# AST/ASF file generated using VICON BodyLanguage
# -----------------------------------------------
:version 1.10
:name VICON
:units
  mass 1.0
  length 0.45
  angle deg
:documentation
   .ast/.asf automatically generated from VICON data using
   VICON BodyBuilder and BodyLanguage model FoxedUp or BRILLIANT.MOD
:root
   order TX TY TZ RX RY RZ
   axis XYZ
   position 0 0 0  
   orientation 0 0 0 
:bonedata
  begin
     id 1 
     name lhipjoint
     direction 0.521689 -0.742065 0.420928 
     length 2.47002 
     axis 0 0 0  XYZ
  end
  begin
     id 2 
     name lfemur
     direction 0.34202 -0.939693 0  
     length 7.24654  
     axis 0 0 20  XYZ
    dof rx ry rz
    limits (-160.0 20.0)
           (-70.0 70.0)
           (-60.0 70.0)
  end
  begin
     id 3 
     name ltibia
     direction 0.34202 -0.939693 0   
     length 8.04849   
     axis 0 0 20   XYZ
    dof rx
    limits (-10.0 170.0)
  end
  begin
     id 4 
     name lfoot
     direction 0.0745411 -0.2048 0.975961   
     length 1.72367   
     axis -90 7.62852e-016 20   XYZ
    dof rx rz
    limits (-45.0 90.0)
           (-70.0 20.0)
  end
  begin
     id 5 
     name ltoes
     direction 1.53556e-011 -4.21901e-011 1   
     length 0.87311   
     axis -90 7.62852e-016 20   XYZ
    dof rx
    limits (-90.0 20.0)
  end
  begin
     id 6 
     name rhipjoint
     direction -0.52849 -0.738415 0.418857   
     length 2.48223  
     axis 0 0 0  XYZ 
  end
  begin
     id 7 
     name rfemur
     direction -0.34202 -0.939693 0   
     length 7.15571   
     axis 0 0 -20   XYZ
    dof rx ry rz
    limits (-160.0 20.0)
           (-70.0 70.0)
           (-70.0 60.0)
  end
  begin
     id 8 
     name rtibia
     direction -0.34202 -0.939693 0   
     length 7.81659   
     axis 0 0 -20   XYZ
    dof rx
    limits (-10.0 170.0)
 end
 begin
     id 9 
     name rfoot
     direction -0.0917348 -0.252039 0.963359   
     length 1.84382  
     axis -90 -7.62852e-016 -20   XYZ
    dof rx rz
    limits (-45.0 90.0)
           (-20.0 70.0)
  end
  begin
     id 10 
     name rtoes
     direction -1.53551e-011 -4.21879e-011 1   
     length 0.927771   
     axis -90 -7.62852e-016 -20   XYZ
    dof rx
    limits (-90.0 20.0)
  end
  begin
     id 11 
     name lowerback
     direction 0.00583058 0.999822 0.0179296   
     length 2.1429   
     axis 0 0 0   XYZ
    dof rx ry rz
    limits (-20.0 45.0)
           (-30.0 30.0)
           (-30.0 30.0)
  end
  begin
     id 12 
     name upperback
     direction -0.0137999 0.999752 -0.0175071   
     length 2.14252   
     axis 0 0 0   XYZ
    dof rx ry rz
    limits (-20.0 45.0)
           (-30.0 30.0)
           (-30.0 30.0)
  end
  begin
     id 13 
     name thorax
     direction -0.0158036 0.99955 -0.0254909   
     length 2.1383   
     axis 0 0 0   XYZ
    dof rx ry rz
    limits (-20.0 45.0)
           (-30.0 30.0)
           (-30.0 30.0)
  end
  begin
     id 14 
     name lowerneck
     direction -0.0101179 0.999403 -0.0330262   
     length 1.65808   
     axis 0 0 0   XYZ
    dof rx ry rz
    limits (-20.0 45.0)
           (-30.0 30.0)
           (-30.0 30.0)
  end
  begin
     id 15 
     name upperneck
     direction 0.0497734 0.995978 -0.074501   
     length 1.5897   
     axis 0 0 0   XYZ
    dof rx ry rz
    limits (-20.0 45.0)
           (-30.0 30.0)
           (-30.0 30.0)
  end
  begin
     id 16
     name head
     direction 0.0189524 0.999519 -0.0245438  
     length 1.74024  
     axis 0 0 0   XYZ
    dof rx ry rz
    limits (-20.0 45.0)
           (-30.0 30.0)
           (-30.0 30.0)
  end
  begin
     id 17 
     name lclavicle
     direction 0.945604 0.324422 0.0241537  
     length 3.59089  
     axis 0 0 0   XYZ
    dof ry rz
    limits (-20.0 10.0)
           (0.0 20.0)
  end
  begin
     id 18 
     name lhumerus
     direction 1 -4.48964e-011 -2.63524e-027   
     length 5.2391   
     axis 180 -30 -90   XYZ
    dof rx ry rz
    limits (-60.0 90.0)
           (-90.0 90.0)
           (-90.0 90.0)
  end
  begin
     id 19
     name lradius
     direction 1 -4.48969e-011 3.86978e-028   
     length 3.31467   
     axis 180 -30 -90   XYZ
    dof rx
    limits (-10.0 170.0)
  end
  begin
     id 20
     name lwrist
     direction 1 -4.48963e-011 7.20928e-028   
     length 1.65734   
     axis -5.52449e-016 90 90   XYZ
    dof ry
    limits (-180.0 0.0)
 end
  begin
     id 21 
     name lhand
     direction 1 -4.48964e-011 1.44186e-027   
     length 0.9659   
     axis -9.20027e-016 90 90   XYZ
    dof rx rz
    limits (-90.0 90.0)
           (-45.0 45.0)
  end
  begin
     id 22 
     name lfingers
     direction 1 -4.48965e-011 2.88371e-027   
     length 0.778733   
     axis -1.84005e-015 90 90   XYZ
    dof rx
    limits (0.0 90.0)
  end
  begin
     id 23
     name lthumb
     direction 0.707107 -6.34931e-011 0.707107   
     length 1.11811   
     axis -90 45 2.85299e-015   XYZ
    dof rx rz
    limits (-45.0 45.0)
           (-45.0 45.0)
  end
  begin
     id 24 
     name rclavicle
     direction -0.923762 0.370785 0.0958234   
     length 3.54196  
     axis 0 0 0   XYZ 
    dof ry rz
    limits (-10.0 20.0)
           (-20.0 0.0)
  end
  begin
     id 25 
     name rhumerus
     direction -1 -4.48966e-011 1.18702e-017  
     length 5.30252   
     axis 180 30 90   XYZ
    dof rx ry rz
    limits (-90.0 60.0)
           (-90.0 90.0)
           (-90.0 90.0)
  end
  begin
     id 26 
     name rradius
     direction -1 -4.48966e-011 4.46736e-027   
     length 3.67875   
     axis 180 30 90   XYZ
    dof rx
    limits (-10.0 170.0)
  end
  begin
     id 27 
     name rwrist
     direction -1 -4.48966e-011 7.20928e-028   
     length 1.83937   
     axis -5.52449e-016 -90 -90   XYZ
    dof ry
    limits (-180.0 0.0)
  end
  begin
     id 28
     name rhand
     direction -1 -4.48973e-011 1.44186e-027   
     length 0.594811   
     axis -9.20027e-016 -90 -90   XYZ
    dof rx rz
    limits (-90.0 90.0)
           (-45.0 45.0)
  end
  begin
     id 29
     name rfingers
     direction -1 -4.48963e-011 2.88371e-027   
     length 0.479552   
     axis -1.84005e-015 -90 -90   XYZ
    dof rx
    limits (0.0 90.0)
  end
  begin
     id 30
     name rthumb
     direction -0.707107 -6.34932e-011 0.707107   
     length 0.688544   
     axis -90 -45 -2.85299e-015   XYZ
    dof rx rz
    limits (-45.0 45.0)
           (-45.0 45.0)
  end
:hierarchy
  begin
    root lhipjoint rhipjoint lowerback
    lhipjoint lfemur
    lfemur ltibia
    ltibia lfoot
    lfoot ltoes
    rhipjoint rfemur
    rfemur rtibia
    rtibia rfoot
    rfoot rtoes
    lowerback upperback
    upperback thorax
    thorax lowerneck lclavicle rclavicle
    lowerneck upperneck
    upperneck head
    lclavicle lhumerus
    lhumerus lradius
    lradius lwrist
    lwrist lhand lthumb
    lhand lfingers
    rclavicle rhumerus
    rhumerus rradius
    rradius rwrist
    rwrist rhand rthumb
    rhand rfingers
  end

#!OML:ASF E:\acrobat2\Project_11_07_03\Capture day 1\Session 1\Acrobat.ASF
:FULLY-SPECIFIED
:DEGREES
1
root 7.84526 17.9062 -32.3054 0.816735 -10.8498 -4.37742
lowerback -5.7281 1.01307 5.68992
upperback 1.12775 0.92952 0.0871255
thorax 4.48289 0.608235 -3.01571
lowerneck 1.10251 -2.35479 -1.49193
upperneck 5.33943 -3.36218 4.80824
head 1.59836 -1.6338 1.72936
rclavicle 1.77609e-014 1.78906e-015
rhumerus -39.4483 -4.40465 -81.9781
rradius 28.4507
rwrist 0.0945318
rhand -5.73766 -37.7319
rfingers 7.12502
rthumb 20.0845 -66.7138
lclavicle 1.77609e-014 1.78906e-015
lhumerus -30.1693 -3.05619 84.5365
lradius 17.5737
lwrist 4.39959
lhand -9.11693 -11.2472
lfingers 7.12502
lthumb 16.8339 18.0432
rfemur 7.47571 1.44014 27.6826
rtibia 4.45453
rfoot -23.9349 -19.7257
rtoes 60.4051
lfemur -9.4417 -1.37408 -5.7093
ltibia 1.0305
lfoot -4.45401 11.1137
ltoes 37.7379
2
root 7.84197 17.9036 -32.3063 0.866058 -11.0181 -4.39056
lowerback -5.73592 1.07855 5.67501
upperback 1.08254 1.01856 0.0938174
thorax 4.44808 0.649998 -2.99186
lowerneck 1.2956 -2.31189 -1.60953
upperneck 5.11297 -3.30571 5.03341
head 1.49838 -1.60983 1.82553
rclavicle -7.22147e-017 -7.35503e-015
rhumerus -39.4577 -4.5268 -81.8973
rradius 28.4026
rwrist 0.24569
rhand -5.62787 -37.6372
rfingers 7.12502
rthumb 20.19 -66.608
lclavicle -7.22147e-017 -7.35503e-015
lhumerus -30.2719 -3.08846 84.5331
lradius 17.3074
lwrist 4.39599
lhand -8.69895 -11.2316
lfingers 7.12502
lthumb 17.2362 18.024
rfemur 7.40007 1.39228 27.6635
rtibia 4.51976
rfoot -23.8596 -19.5965
rtoes 56.0466
lfemur -9.41936 -1.39703 -5.65501
ltibia 0.975106
lfoot -4.52107 11.2389
ltoes 37.2405
3
root 7.83943 17.9018 -32.304 0.909728 -11.2533 -4.42742
lowerback -5.76333 1.17688 5.71928
upperback 1.03964 1.146 0.0923289
thorax 4.43199 0.712958 -3.00565
lowerneck 1.37118 -2.31736 -1.56592
upperneck 5.00247 -3.30898 5.04386
head 1.44941 -1.61291 1.82183
rclavicle -3.02339e-014 -6.95746e-015
rhumerus -39.512 -4.62081 -81.838
rradius 28.3695
rwrist 0.342881
rhand -5.64911 -37.4663
rfingers 7.12502
rthumb 20.1696 -66.4392
lclavicle -3.02339e-014 -6.95746e-015
lhumerus -30.4423 -3.07703 84.502
lradius 17.2182
lwrist 4.30946
lhand -8.75726 -10.975
lfingers 7.12502
lthumb 17.1801 18.2855
rfemur 7.34131 1.50291 27.7049
rtibia 4.60446
rfoot -23.8478 -19.4513
rtoes 50.7574
lfemur -9.31101 -1.44635 -5.55928
ltibia 0.83464
lfoot -4.86522 11.3528
ltoes 37.6489
4
root 7.83702 17.9 -32.3017 0.954508 -11.5388 -4.36291
lowerback -5.82673 1.28145 5.67558
upperback 0.989706 1.28773 0.0526147
thorax 4.42907 0.781489 -3.00784
lowerneck 1.53615 -2.38111 -1.49149
upperneck 4.90012 -3.38809 4.99346
head 1.38831 -1.6553 1.79311
rclavicle 4.90128e-015 -1.76918e-014
rhumerus -39.581 -4.63377 -81.8264
rradius 28.3443
rwrist 0.333603
rhand -5.69426 -37.3333
rfingers 7.12502
rthumb 20.1262 -66.3108
lclavicle 4.90128e-015 -1.76918e-014
lhumerus -30.509 -2.92157 84.3849
lradius 17.0335
lwrist 4.0845
lhand -8.83907 -11.0816
lfingers 7.12502
lthumb 17.1013 18.1858
rfemur 7.2611 1.51266 27.5987
rtibia 4.68242
rfoot -23.6954 -19.2439
rtoes 42.5335
lfemur -9.22876 -1.41349 -5.58105
ltibia 0.756978
lfoot -5.06661 11.4866
ltoes 37.7962
5
root 7.835 17.8957 -32.3012 1.07327 -11.7258 -4.33939
lowerback -5.93475 1.3511 5.65102
upperback 0.909149 1.37827 0.0398795
thorax 4.41426 0.82378 -2.9972
lowerneck 1.68325 -2.4043 -1.46722
upperneck 4.81827 -3.41552 4.98572
head 1.33718 -1.67174 1.78761
rclavicle -2.34628e-014 -2.38542e-015
rhumerus -39.657 -4.63931 -81.7961
rradius 28.3215
rwrist 0.352936
rhand -5.70701 -37.2538
rfingers 7.12502
rthumb 20.114 -66.2326
lclavicle -2.34628e-014 -2.38542e-015
lhumerus -30.6058 -2.78434 84.3053
lradius 16.8704
lwrist 3.9596
lhand -8.73088 -11.0455
lfingers 7.12502
lthumb 17.2055 18.2128
rfemur 7.10071 1.53268 27.5519
rtibia 4.7565
rfoot -23.6279 -19.0809
rtoes 33.2194
lfemur -9.28812 -1.39151 -5.56038
ltibia 0.725429
lfoot -5.24395 11.5805
ltoes 37.9026
6
root 7.83349 17.8898 -32.3011 1.24364 -11.8566 -4.3055
lowerback -6.09449 1.39709 5.61157
upperback 0.804094 1.43561 0.0305882
thorax 4.39933 0.84867 -2.97718
lowerneck 1.83138 -2.42494 -1.45054
upperneck 4.77501 -3.44031 4.95642
head 1.29777 -1.68678 1.77656
rclavicle 6.84254e-015 2.127e-014
rhumerus -39.7541 -4.5985 -81.7754
rradius 28.3081
rwrist 0.344735
rhand -5.73567 -37.2544
rfingers 7.12502
rthumb 20.0864 -66.2361
lclavicle 6.84254e-015 2.127e-014
lhumerus -30.7267 -2.62205 84.2283
lradius 16.7449
lwrist 3.87274
lhand -8.59711 -11.0039
lfingers 7.12502
lthumb 17.3342 18.2431
rfemur 6.88335 1.5379 27.4943
rtibia 4.81987
rfoot -23.5703 -18.9464
rtoes 23.563
lfemur -9.45163 -1.35795 -5.55584
ltibia 0.740473
lfoot -5.38548 11.648
ltoes 38.0196
7
root 7.83245 17.8827 -32.3012 1.45106 -11.9171 -4.26372
lowerback -6.29615 1.41429 5.55854
upperback 0.685219 1.45311 0.0271908
thorax 4.38923 0.853244 -2.94677
lowerneck 1.96666 -2.43706 -1.45628
upperneck 4.76261 -3.45501 4.92328
head 1.27044 -1.69663 1.76822
rclavicle -1.43156e-014 1.23246e-014
rhumerus -39.8592 -4.51853 -81.7618
rradius 28.3045
rwrist 0.319876
rhand -5.7708 -37.3473
rfingers 7.12502
rthumb 20.0527 -66.3325
lclavicle -1.43156e-014 1.23246e-014
lhumerus -30.8836 -2.45692 84.1657
lradius 16.6693
lwrist 3.84304
lhand -8.44817 -10.9813
lfingers 7.12502
lthumb 17.4776 18.253
rfemur 6.63056 1.51376 27.4271
rtibia 4.86304
rfoot -23.5075 -18.8624
rtoes 15.5095
lfemur -9.70537 -1.32382 -5.56787
ltibia 0.799346
lfoot -5.47272 11.6889
ltoes 38.0883
8
root 7.8317 17.8756 -32.301 1.65451 -11.9188 -4.21991
lowerback -6.50042 1.40479 5.4999
upperback 0.573336 1.43489 0.0315721
thorax 4.38413 0.840206 -2.90874
lowerneck 2.05496 -2.43852 -1.48917
upperneck 4.78612 -3.45726 4.892
head 1.26277 -1.69962 1.76481
rclavicle 1.94964e-014 -1.07344e-014
rhumerus -39.9543 -4.41277 -81.7516
rradius 28.3077
rwrist 0.298264
rhand -5.80333 -37.501
rfingers 7.12502
rthumb 20.0214 -66.4894
lclavicle 1.94964e-014 -1.07344e-014
lhumerus -31.0772 -2.30341 84.1221
lradius 16.658
lwrist 3.87598
lhand -8.33316 -10.9951
lfingers 7.12502
lthumb 17.5883 18.2293
rfemur 6.39456 1.4706 27.3596
rtibia 4.88011
rfoot -23.4488 -18.8235
rtoes 10.3317
lfemur -9.9832 -1.30656 -5.59128
ltibia 0.874792
lfoot -5.52235 11.7085
ltoes 38.1202
9
root 7.83085 17.8698 -32.3002 1.81424 -11.8915 -4.18152
lowerback -6.67078 1.37962 5.44195
upperback 0.490343 1.39687 0.0451553
thorax 4.38806 0.818134 -2.86401
lowerneck 2.08449 -2.43188 -1.54311
upperneck 4.82852 -3.44963 4.86311
head 1.27133 -1.69697 1.7653
rclavicle -3.73032e-015 -1.78906e-015
rhumerus -40.021 -4.30353 -81.7375
rradius 28.3133
rwrist 0.296529
rhand -5.82362 -37.6674
rfingers 7.12502
rthumb 20.0019 -66.6579
lclavicle -3.73032e-015 -1.78906e-015
lhumerus -31.2911 -2.18799 84.1064
lradius 16.7127
lwrist 3.96616
lhand -8.2898 -11.0328
lfingers 7.12502
lthumb 17.63 18.1879
rfemur 6.22321 1.42825 27.3042
rtibia 4.87281
rfoot -23.4086 -18.8097
rtoes 7.88609
lfemur -10.2147 -1.30645 -5.61605
ltibia 0.941641
lfoot -5.54753 11.7146
ltoes 38.1251
10
root 7.82967 17.8658 -32.2994 1.91298 -11.8588 -4.14809
lowerback -6.78923 1.34969 5.388
upperback 0.441561 1.35446 0.0626344
thorax 4.39815 0.794847 -2.81858
lowerneck 2.06819 -2.42405 -1.61007
upperneck 4.88844 -3.4413 4.83943
head 1.29369 -1.69335 1.76925
rclavicle 3.73498e-014 7.95139e-015
rhumerus -40.057 -4.21126 -81.7181
rradius 28.3139
rwrist 0.319755
rhand -5.82762 -37.7934
rfingers 7.12502
rthumb 19.9981 -66.7843
lclavicle 3.73498e-014 7.95139e-015
lhumerus -31.5033 -2.12697 84.117
lradius 16.81
lwrist 4.10213
lhand -8.31619 -11.0814
lfingers 7.12502
lthumb 17.6046 18.1416
rfemur 6.13057 1.39032 27.2605
rtibia 4.85059
rfoot -23.3835 -18.8024
rtoes 7.76485
lfemur -10.3672 -1.31669 -5.64168
ltibia 0.988956
lfoot -5.55503 11.7128
ltoes 38.1443
11
root 7.82804 17.8635 -32.2988 1.95951 -11.8284 -4.12021
lowerback -6.85522 1.32181 5.33698
upperback 0.414228 1.31722 0.0831024
thorax 4.40161 0.774461 -2.77186
lowerneck 2.04972 -2.41637 -1.68796
upperneck 4.94391 -3.43331 4.82442
head 1.3155 -1.69004 1.77793
rclavicle -2.65657e-014 1.98785e-016
rhumerus -40.0843 -4.14256 -81.6879
rradius 28.3111
rwrist 0.359622
rhand -5.80945 -37.8444
rfingers 7.12502
rthumb 20.0155 -66.8335
lclavicle -2.65657e-014 1.98785e-016
lhumerus -31.7032 -2.12765 84.1585
lradius 16.9282
lwrist 4.2793
lhand -8.3859 -11.1208
lfingers 7.12502
lthumb 17.5375 18.1081
rfemur 6.10131 1.36027 27.2304
rtibia 4.81872
rfoot -23.3711 -18.7939
rtoes 7.76887
lfemur -10.4496 -1.32616 -5.66634
ltibia 1.01884
lfoot -5.5515 11.7009
ltoes 38.2114
